<?xml version="1.0" encoding="UTF-8"?>
<svg xmlns="http://www.w3.org/2000/svg" xmlns:xlink="http://www.w3.org/1999/xlink" viewBox="0 0 108.25 72.21">
  <defs>
    <style>
      .cls-1 {
        fill: url(#linear-gradient);
        stroke-width: 3px;
      }

      .cls-1, .cls-2, .cls-3, .cls-4 {
        stroke: #80301a;
        stroke-miterlimit: 10;
      }

      .cls-5 {
        fill: url(#linear-gradient-2);
        stroke-width: 0px;
      }

      .cls-2 {
        fill: url(#linear-gradient-4);
      }

      .cls-2, .cls-3, .cls-4 {
        stroke-width: 2px;
      }

      .cls-3 {
        fill: none;
      }

      .cls-4 {
        fill: url(#linear-gradient-3);
      }
    </style>
    <linearGradient id="linear-gradient" x1="37.29" y1="3.25" x2="38.44" y2="70.38" gradientTransform="translate(-1.31 -7.4) rotate(-.03) scale(1.15 1.12) skewX(-.06)" gradientUnits="userSpaceOnUse">
      <stop offset="0" stop-color="#fff33b"/>
      <stop offset=".06" stop-color="#fee62d"/>
      <stop offset=".16" stop-color="#fdd51b"/>
      <stop offset=".27" stop-color="#fdca0f"/>
      <stop offset=".39" stop-color="#fdc70c"/>
      <stop offset=".76" stop-color="#f3903f"/>
      <stop offset=".89" stop-color="#ed683c"/>
      <stop offset="1" stop-color="#e93e3a"/>
    </linearGradient>
    <linearGradient id="linear-gradient-2" x1="46.9" y1="58.62" x2="56.85" y2="58.62" gradientTransform="matrix(1,0,0,1,0,0)" xlink:href="#linear-gradient"/>
    <linearGradient id="linear-gradient-3" x1="31.49" y1="30.07" x2="31.82" y2="49.32" gradientTransform="matrix(1,0,0,1,0,0)" xlink:href="#linear-gradient"/>
    <linearGradient id="linear-gradient-4" x1="53.1" y1="29.76" x2="53.46" y2="50.48" gradientTransform="matrix(1,0,0,1,0,0)" xlink:href="#linear-gradient"/>
  </defs>
  <g id="Layer_1" data-name="Layer 1">
    <path class="cls-1" d="M72.23,56.04c-1.06-2.26-2.13-4.53-3.19-6.79l9.86-4.73-7.88-4.32,10.04-5.42-8.12-6.21,5.22-6.88-10.37-2.79.42-7.06-10.45,3.86-.36-10.18-10.13,7.95-6.39-10.7-5.56,8.02-7.74-6.19-1.97,9.62-8.41-3.47-.21,8.5-9.57,1.43,4.45,8.35-8.3,3.85,8.99,7.43-8.99,4.68,8.6,3.47-.78,6.52,8.71-.15.42,2.11c.73,3.63,2.75,6.86,5.68,9.07l1.24.94c.82.44,1.91.97,3.22,1.48,0,0,1.6.61,3.38,1.05,10.01,2.44,16.24.63,16.24.63,1.96-.57,6.31-1.91,9.91-6.03,2.88-3.29,3.91-6.8,4.32-8.65,2.57.22,5.14.44,7.71.66Z"/>
    <path class="cls-5" d="M48.02,58.65c-.35.09-.75.11-.97.44-.65.98.8,3.97,3.18,4.68,2.52.75,4.73-1.46,5.03-1.76.36-.37,1.55-1.6,1.59-3.44.03-1.33-.56-2.29-1.06-3.09-.5-.82-1.05-1.7-2.12-2.03-.72-.22-1.38-.11-1.76,0-1.29,3.79-2.74,4.92-3.88,5.21Z"/>
  </g>
  <g id="Layer_2" data-name="Layer 2">
    <polygon class="cls-4" points="21.35 32.53 21.96 49.1 38.29 49.1 41.7 31.92 21.35 31.92 21.35 32.53"/>
    <polygon class="cls-2" points="45.91 32.47 41.7 48.44 62.76 50.2 64.86 31.37 45.91 32.47"/>
    <path class="cls-3" d="M32.94,53c.16.55,1.21,3.89,4.68,5.56,4.1,1.98,8.13.31,8.49.11.79-.23,2.05-1.17,3.42-2.41,1.14-1.03,1.78-2.12,2.12-2.82,1.98.1,3.74,1.21,4.59,2.91,1.08,2.18.29,4.58-.97,6-1.26,1.42-3.52,2.46-5.29,1.76-1.23-.48-1.91-1.67-2.91-3.44-.54-.95-.89-1.81-1.11-2.43"/>
  </g>
</svg>