<?xml version="1.0" encoding="UTF-8"?>
<svg id="uuid-21531cad-988c-4096-ae35-439d8b4eea7a" data-name="Layer 2" xmlns="http://www.w3.org/2000/svg" xmlns:xlink="http://www.w3.org/1999/xlink" viewBox="0 0 91.35 107.09">
  <defs>
    <style>
      .uuid-4bc9e65f-3fda-4f2e-8a38-fa38e90018ce {
        fill: #231f20;
        font-family: AristelleSans-Regular, 'Aristelle Sans';
        font-size: 68.75px;
      }

      .uuid-44c7a72f-dbbe-4c2d-9fde-f3c00184c05d {
        fill: #80301a;
        stroke-width: 6px;
      }

      .uuid-44c7a72f-dbbe-4c2d-9fde-f3c00184c05d, .uuid-ec9a74c1-280c-4bcb-8fbe-d00f07c44c15 {
        stroke: #803017;
        stroke-miterlimit: 10;
      }

      .uuid-ec9a74c1-280c-4bcb-8fbe-d00f07c44c15 {
        fill: url(#uuid-51111457-b54f-4bc7-ac1d-32e244bb1c78);
        stroke-width: 5px;
      }
    </style>
    <linearGradient id="uuid-51111457-b54f-4bc7-ac1d-32e244bb1c78" x1="2.96" y1="42.27" x2="88.85" y2="42.27" gradientUnits="userSpaceOnUse">
      <stop offset="0" stop-color="#fff33b"/>
      <stop offset=".04" stop-color="#fee62d"/>
      <stop offset=".12" stop-color="#fdd51b"/>
      <stop offset=".2" stop-color="#fdca0f"/>
      <stop offset=".28" stop-color="#fdc70c"/>
      <stop offset=".49" stop-color="#f3903f"/>
      <stop offset=".8" stop-color="#ed683c"/>
      <stop offset=".97" stop-color="#e93e3a"/>
    </linearGradient>
  </defs>
  <path class="uuid-44c7a72f-dbbe-4c2d-9fde-f3c00184c05d" d="M43.6,6.09c.02.41-.61.51-.79.85L3.2,78.1c-.84,1.74,1.08,6.25,3.29,6.25h77.73c3.18,0,4.83-5.46,3.4-7.88L51,5.41c-.74-1.37-4-3.7-5.48-1.52-.4.6-1.96,1.63-1.92,2.19Z"/>
  <path class="uuid-ec9a74c1-280c-4bcb-8fbe-d00f07c44c15" d="M43.54,3.47c-.36.2-.62.51-.8.85L3.2,78.1c-.85,1.74.67,3.64,2.89,3.64h78.43c3.21,0,5.3-2.85,3.86-5.27L49.49,4.89c-.74-1.37-2.21-2.2-3.76-2.07-.73.06-1.48.27-2.19.66Z"/>
  <text class="uuid-4bc9e65f-3fda-4f2e-8a38-fa38e90018ce" transform="translate(31.73 68.65) scale(1.03 1)"><tspan x="0" y="0">!</tspan></text>
</svg>